# Blender 4.3.0
# www.blender.org
mtllib box.mtl
o Cube
v -177.403183 -0.000004 350.000000
v -177.403183 100.000000 350.000000
v -177.403183 -0.000004 -350.000000
v -177.403183 100.000000 -350.000000
v 177.403183 -0.000004 350.000000
v 177.403183 100.000000 350.000000
v 177.403183 -0.000004 -350.000000
v 177.403183 100.000000 -350.000000
vn 1.0000 -0.0000 -0.0000
vn -1.0000 -0.0000 -0.0000
vn -0.0000 -0.0000 -1.0000
vn -0.0000 1.0000 -0.0000
vn -0.0000 -1.0000 -0.0000
vt 0.333330 -10.083611
vt -20.833889 -31.250834
vt 0.333331 -31.250832
vt 0.333330 11.083615
vt -20.833889 -10.083610
vt 0.333331 -10.083608
vt 21.500555 -10.083611
vt 0.333333 -31.250834
vt 21.500555 -31.250832
vt 0.333333 11.083611
vt 43.249290 -10.083611
vt 43.249283 11.083611
vt -42.582619 32.250832
vt 0.333329 11.083615
vt 0.333325 32.250832
vt -20.833891 -10.083613
vt -20.833891 11.083611
vt 0.333331 -10.083613
vt 0.333337 -10.083611
vt -42.582619 11.083611
s 0
usemtl floor
f 1/7/3 6/8/3 5/9/3
f 1/10/4 7/11/4 3/12/4
f 1/7/3 2/18/3 6/8/3
f 1/10/4 5/19/4 7/11/4
usemtl top
f 6/13/5 4/14/5 8/15/5
f 6/13/5 2/20/5 4/14/5
usemtl sides
f 3/1/1 2/2/1 1/3/1
f 5/4/2 8/5/2 7/6/2
f 3/1/1 4/16/1 2/2/1
f 5/4/2 6/17/2 8/5/2
